<svg width="100" height="32" viewBox="0 0 100 32" fill="none" xmlns="http://www.w3.org/2000/svg">
<path d="M15.2879 31.9993C23.7312 31.9993 30.5758 25.052 30.5758 16.4821C30.5758 7.91215 23.7312 0.964844 15.2879 0.964844C6.84463 0.964844 0 7.91215 0 16.4821C0 25.052 6.84463 31.9993 15.2879 31.9993Z" fill="url(#paint0_linear)"/>
<path d="M98.501 12.2843C98.0983 12.284 97.7119 12.446 97.4268 12.7348C97.1418 13.0236 96.9814 13.4154 96.981 13.8242V19.3979C96.8559 21.1297 95.498 22.3795 93.7022 22.3795C91.9064 22.3795 90.5897 20.6809 90.5897 19.2305V13.7463C90.5647 12.917 89.8951 12.2578 89.0776 12.2578C88.2601 12.2578 87.5905 12.917 87.5654 13.7463V19.2305C87.5654 22.6566 90.3039 25.2024 93.6795 25.2067C94.888 25.2067 96.1521 24.6525 97.0194 24.0002V24.5284C97.0194 26.5114 95.3715 28.1364 93.4178 28.1364C92.586 28.1383 91.7803 27.8418 91.1428 27.2994C90.4981 26.7797 89.5629 26.8761 89.0342 27.5167C88.5056 28.1574 88.5763 29.1089 89.1935 29.6619C91.1513 31.3298 93.8838 31.6954 96.2006 30.5995C98.5174 29.5035 99.9989 27.1445 99.9997 24.5501V13.8387C100.003 13.4299 99.8463 13.0365 99.5639 12.745C99.2816 12.4535 98.8966 12.2878 98.4939 12.2843H98.501Z" fill="white"/>
<path d="M49.2822 6.74609C48.4436 6.74609 47.7637 7.43617 47.7637 8.28743V24.3069C47.7637 25.1582 48.4436 25.8482 49.2822 25.8482C50.1209 25.8482 50.8008 25.1582 50.8008 24.3069V8.28743C50.8008 7.43617 50.1209 6.74609 49.2822 6.74609Z" fill="white"/>
<path d="M44.0529 9.83123C44.9344 9.73597 45.5828 9.08509 45.5828 8.28989C45.5812 7.43953 44.9021 6.75079 44.0643 6.75H44.0529C41.2992 6.76851 39.0457 8.9796 38.9342 11.7723V24.3281C38.9114 25.1772 39.5695 25.8849 40.4059 25.9108C41.2424 25.9366 41.9417 25.2708 41.9699 24.4219C41.9699 24.3916 41.9699 24.3599 41.9699 24.3281V15.0917H43.8112C44.5776 15.0917 45.1989 14.461 45.1989 13.6831C45.1989 12.9052 44.5776 12.2746 43.8112 12.2746H41.9627V12.0812C41.9599 10.9079 42.7576 9.97266 44.0529 9.83123Z" fill="white"/>
<path d="M75.337 12.2611H74.0573V8.29235C74.0756 7.74083 73.802 7.22148 73.3399 6.93065C72.8779 6.63982 72.2979 6.6219 71.8193 6.88366C71.3407 7.14542 71.0364 7.64692 71.0216 8.19854C71.0216 8.22885 71.0216 8.2606 71.0216 8.29235V12.2611H69.7533C68.9865 12.236 68.3448 12.8466 68.3201 13.625C68.2953 14.4033 68.8969 15.0546 69.6637 15.0797C69.6931 15.0797 69.723 15.0797 69.7533 15.0797H71.0259V20.9679C71.0263 22.9893 72.1888 24.8246 74.0004 25.6641C74.0758 25.6987 74.1511 25.7319 74.2293 25.7637C74.9968 26.0524 75.8513 25.6698 76.1589 24.9C76.4664 24.1302 76.1156 23.2516 75.3668 22.9163L75.3 22.8845C74.5524 22.5482 74.0687 21.798 74.0644 20.9679V15.0783H75.3341C76.1006 15.0783 76.7219 14.4476 76.7219 13.6697C76.7219 12.8918 76.1006 12.2611 75.3341 12.2611H75.337Z" fill="white"/>
<path d="M84.2652 9.83123C85.1453 9.73597 85.7937 9.08509 85.7937 8.28989C85.7937 7.43943 85.1145 6.75 84.2766 6.75H84.2652C81.5113 6.76778 79.2573 8.97928 79.1465 11.7723V24.3281C79.1465 25.1794 79.8264 25.8695 80.665 25.8695C81.5037 25.8695 82.1836 25.1794 82.1836 24.3281V15.0917H84.0235C84.7899 15.0917 85.4112 14.461 85.4112 13.6831C85.4112 12.9052 84.7899 12.2746 84.0235 12.2746H82.1751V12.0812C82.1722 10.9078 82.9699 9.97266 84.2652 9.83123Z" fill="white"/>
<path d="M65.3859 12.2775C64.7155 12.2776 64.1241 12.7231 63.9299 13.3744C61.0554 11.2233 57.0433 11.63 54.6448 14.3156C52.2462 17.0013 52.2401 21.0939 54.6306 23.7869C57.021 26.48 61.0319 26.8991 63.9128 24.7569C64.137 25.4821 64.8486 25.9331 65.5891 25.8193C66.3295 25.7056 66.8776 25.0609 66.8803 24.3008L66.9016 13.8203C66.9024 12.9696 66.224 12.2791 65.3859 12.2775ZM61.2952 22.9081H61.2838C61.234 22.9283 61.1829 22.9471 61.1317 22.9644L61.099 22.976C61.052 22.9918 61.0051 23.0077 60.9568 23.0207L60.907 23.0351L60.7762 23.0712L60.7122 23.0856C60.6724 23.0943 60.6326 23.1044 60.5914 23.1116L60.5117 23.1261L60.4008 23.1448C60.3684 23.1471 60.3361 23.1514 60.3041 23.1578L60.2075 23.1694L60.0852 23.1795H59.8008C57.5581 23.1763 55.7382 21.3368 55.7257 19.0606V19.0433C55.7273 16.7577 57.5519 14.9051 59.8036 14.9027H60.088L60.2089 14.9114L60.307 14.9244L60.4037 14.9359L60.5146 14.9547L60.5942 14.9691L60.7151 14.9965L60.779 15.011L60.9099 15.0456L60.9596 15.06L61.1018 15.1062L61.1359 15.1178C61.1871 15.1351 61.2369 15.1538 61.2881 15.174H61.3037C62.8622 15.7964 63.8868 17.3232 63.8868 19.023C63.8868 20.7229 62.8622 22.2497 61.3037 22.8721L61.2952 22.9081Z" fill="white"/>
<path d="M10.7126 10.5273C10.608 10.5275 10.5035 10.5342 10.3998 10.5475C10.4278 10.6804 10.442 10.8158 10.4424 10.9516C10.4442 11.5468 10.1704 12.1083 9.70305 12.4677C9.2357 12.8272 8.6291 12.9429 8.06506 12.7802C7.86713 13.9108 8.3873 15.0463 9.3666 15.6214C10.3459 16.1964 11.575 16.0881 12.442 15.3504C13.309 14.6126 13.6286 13.4031 13.2417 12.324C12.8547 11.2449 11.8439 10.5268 10.7126 10.5273Z" fill="#221F1F"/>
<path d="M9.42038 8.26563C7.31017 8.26213 5.40583 9.54966 4.59589 11.5275C3.78596 13.5053 4.23006 15.7836 5.72098 17.2994C7.2119 18.8151 9.45581 19.2696 11.4057 18.4508C13.3556 17.6319 14.6272 15.7011 14.6273 13.5593C14.6284 12.1565 14.0804 10.8106 13.104 9.8179C12.1275 8.82515 10.8025 8.26678 9.42038 8.26563ZM10.7114 15.9882C9.91401 15.9916 9.15651 15.6344 8.64473 15.0137C8.13296 14.393 7.92008 13.5732 8.06392 12.7771C8.62796 12.9398 9.23455 12.8241 9.70191 12.4646C10.1693 12.1052 10.4431 11.5437 10.4413 10.9485C10.4409 10.8127 10.4266 10.6773 10.3986 10.5444C10.5024 10.5311 10.6068 10.5244 10.7114 10.5242C12.198 10.5242 13.403 11.7474 13.403 13.2562C13.403 14.765 12.198 15.9882 10.7114 15.9882Z" fill="white"/>
<path d="M22.8928 10.5273C22.7882 10.5276 22.6837 10.5343 22.58 10.5475C22.6091 10.6802 22.6239 10.8157 22.624 10.9516C22.6244 11.4554 22.4276 11.9386 22.077 12.295C21.7263 12.6515 21.2505 12.852 20.7543 12.8523C20.582 12.8523 20.4107 12.8275 20.2452 12.7787C20.2168 12.9373 20.2021 13.0981 20.2012 13.2593C20.2012 14.7681 21.4062 15.9913 22.8928 15.9913C24.3793 15.9913 25.5844 14.7681 25.5844 13.2593C25.5844 11.7505 24.3793 10.5273 22.8928 10.5273Z" fill="#221F1F"/>
<path d="M21.5708 8.26563C19.4606 8.26213 17.5562 9.54966 16.7463 11.5275C15.9363 13.5053 16.3804 15.7836 17.8714 17.2994C19.3623 18.8151 21.6062 19.2696 23.5561 18.4508C25.506 17.6319 26.7776 15.7011 26.7776 13.5593C26.7788 12.1565 26.2308 10.8106 25.2544 9.8179C24.2779 8.82515 22.9528 8.26678 21.5708 8.26563ZM22.8931 15.9882C21.4069 15.9874 20.2023 14.7647 20.2015 13.2562C20.2024 13.095 20.2171 12.9342 20.2456 12.7756C20.411 12.8244 20.5824 12.8492 20.7546 12.8492C21.2509 12.8488 21.7267 12.6484 22.0773 12.2919C22.428 11.9355 22.6247 11.4522 22.6244 10.9485C22.6242 10.8126 22.6095 10.6771 22.5803 10.5444C22.6841 10.5312 22.7885 10.5245 22.8931 10.5242C24.3796 10.5242 25.5847 11.7474 25.5847 13.2562C25.5847 14.765 24.3796 15.9882 22.8931 15.9882Z" fill="white"/>
<defs>
<linearGradient id="paint0_linear" x1="15.2879" y1="0.964844" x2="15.2879" y2="31.9993" gradientUnits="userSpaceOnUse">
<stop stop-color="#F9A11B"/>
<stop offset="1" stop-color="#F16A21"/>
</linearGradient>
</defs>
</svg>
