<svg width="110" height="60" viewBox="0 0 110 60" fill="none" xmlns="http://www.w3.org/2000/svg">
<path fill-rule="evenodd" clip-rule="evenodd" d="M3.2166 32.7314C4.59633 41.6424 11.3029 47.8211 13.7868 49.686C13.9221 49.8041 14.0574 49.9223 14.1927 50.0405C14.1985 47.7847 14.2048 43.8736 14.1899 38.9996C14.189 38.7019 14.1881 38.4123 14.1872 38.1304C14.1624 30.2724 14.1568 28.4725 15.5599 26.2657C17.7547 22.8173 22.0026 20.5663 26.037 20.543C28.5694 20.5294 30.4595 21.3949 30.8728 21.5909C33.6187 22.8969 35.0353 25.0043 35.5476 25.862C37.0438 28.3712 37.1485 30.8299 37.0787 32.1475L37.0785 32.1501C37.026 33.1387 36.8593 36.2752 34.4997 38.757C32.5378 40.8188 30.2922 41.084 29.1372 41.2203C29.0355 41.2323 28.9423 41.2433 28.8585 41.2545C27.3759 41.4544 25.8798 41.3845 25.0706 41.2273C25.0744 38.5358 25.0783 36.0344 25.0841 33.3429C25.1187 33.3367 25.1778 33.3295 25.2472 33.321C25.3727 33.3057 25.5317 33.2864 25.6391 33.2614C26.7026 33.0246 27.0596 32.7238 27.4089 32.3086C27.9348 31.6818 27.9057 30.2186 26.9257 29.487C25.9535 28.7612 24.6611 29.2173 24.0246 29.8906C23.6443 30.2923 23.5123 30.7581 23.4599 31.0181L23.8286 58.458C24.4174 58.9721 25.0062 59.4861 25.595 60C31.8805 56.0296 36.206 51.7876 38.9324 48.7176C43.3938 43.6936 48.5828 37.6876 48.2005 30.0204C48.1656 29.3354 48.0938 28.7746 48.0394 28.4078C48.2859 28.3554 49.9198 27.977 50.7795 26.3935C51.8681 24.387 50.6689 22.365 50.6184 22.2835L42.3167 14.0633C42.2712 13.168 42.3489 11.8825 42.4333 10.4877C42.5754 8.13684 42.7363 5.47541 42.3575 3.84824C41.9454 2.07637 40.1933 2.12588 39.8967 2.13426C39.8903 2.13444 39.8845 2.13461 39.8794 2.13473C39.8043 2.13697 39.7227 2.13626 39.6358 2.13551C38.8943 2.12908 37.7672 2.1193 36.9977 3.90839C36.8208 4.32022 36.7973 5.08445 36.7722 5.8986C36.7461 6.74558 36.7183 7.6466 36.5145 8.26105C35.1725 6.98593 33.83 5.71081 32.4874 4.43569C31.1433 3.15898 29.7991 1.88228 28.4554 0.605577C27.8364 0.351365 26.7807 0.00594675 25.434 0.000125096C24.0445 -0.00763711 22.9578 0.347484 22.331 0.605577L22.3191 0.617324C15.0693 7.75075 7.81949 14.8842 0.56969 22.0137C-0.24146 23.5254 -0.185184 25.2933 0.730755 26.5546C1.55161 27.684 2.76833 28.0023 3.14868 28.0857C3.00314 29.6847 2.91776 30.8025 3.2166 32.7314Z" fill="white"/>
<path d="M49.7236 32.5934C49.7236 31.5494 50.3058 31.0273 51.4721 31.0273C52.6383 31.0273 53.2205 31.5494 53.2205 32.5934C53.2205 33.0921 53.075 33.4783 52.7839 33.7558C52.4928 34.0333 52.0542 34.171 51.4721 34.171C50.3077 34.171 49.7236 33.6451 49.7236 32.5934ZM53.075 47.425H49.8614V35.6459H53.075V47.425Z" fill="white"/>
<path d="M59.6589 47.425H56.4434V31.0273H59.6569V47.425H59.6589Z" fill="white"/>
<path d="M66.2419 47.425H63.0283V31.0273H66.2419V47.425Z" fill="white"/>
<path d="M80.3069 41.5191C80.3069 43.4364 79.8024 44.9345 78.7914 46.0154C77.7803 47.0963 76.3734 47.6377 74.5707 47.6377C73.4413 47.6377 72.4438 47.3893 71.5803 46.8945C70.7167 46.3996 70.0531 45.6894 69.5912 44.7618C69.1274 43.8342 68.8965 42.7533 68.8965 41.5172C68.8965 39.5941 69.3991 38.0979 70.4024 37.0306C71.4056 35.9633 72.8164 35.4297 74.6347 35.4297C75.7641 35.4297 76.7615 35.6761 77.6251 36.1671C78.4886 36.6581 79.1523 37.3644 79.6141 38.2842C80.076 39.206 80.3069 40.283 80.3069 41.5191ZM72.1721 41.523C72.1721 42.6873 72.3623 43.5664 72.7446 44.1622C73.1269 44.7579 73.7498 45.0568 74.6114 45.0568C75.4672 45.0568 76.0823 44.7599 76.4569 44.168C76.8314 43.5761 77.0196 42.6932 77.0196 41.523C77.0196 40.3587 76.8295 39.4854 76.451 38.9052C76.0726 38.323 75.4517 38.032 74.5901 38.032C73.7343 38.032 73.1172 38.3211 72.7388 38.8994C72.3604 39.4777 72.1721 40.3529 72.1721 41.523Z" fill="white"/>
<path d="M92.6542 47.4256L91.748 43.3058L90.5255 38.1013H90.4517L88.3016 47.4256H84.8455L81.4941 35.6465H84.698L86.0583 40.8627C86.2757 41.798 86.4969 43.0866 86.722 44.7302H86.786C86.8132 44.1965 86.9374 43.3505 87.1547 42.192L87.3236 41.2954L88.779 35.6484H92.3185L93.7002 41.2954C93.7274 41.4507 93.772 41.6777 93.8322 41.9804C93.8923 42.2832 93.9505 42.6034 94.0068 42.9449C94.0631 43.2864 94.1135 43.6202 94.1601 43.9462C94.2067 44.2722 94.2319 44.5342 94.2397 44.7321H94.3037C94.3678 44.2257 94.4784 43.5329 94.6414 42.6519C94.8024 41.7709 94.9189 41.1751 94.9887 40.8666L96.4014 35.6504H99.551L96.1569 47.4295H92.6542V47.4256Z" fill="white"/>
<path d="M109.622 47.4256H100.327V45.5219L105.778 38.111H100.655V35.6465H109.436V37.7403L104.133 44.9611H109.624V47.4256H109.622Z" fill="white"/>
</svg>
