<svg width="16" height="16" viewBox="0 0 16 16" fill="none" xmlns="http://www.w3.org/2000/svg">
<path d="M5.66891 5.56108H0.434306C0.194486 5.56108 0 5.758 0 6.00081C0 6.24362 0.194486 6.44054 0.434306 6.44054H5.66909C5.9089 6.44054 6.10321 6.24362 6.10321 6.00081C6.10321 5.758 5.9089 5.56108 5.66891 5.56108Z" fill="#4A5EA8"/>
<path d="M5.49866 7.62963H1.83933C1.59951 7.62963 1.40484 7.82654 1.40484 8.06936C1.40484 8.31217 1.59933 8.50909 1.83933 8.50909H5.49866C5.73848 8.50909 5.93297 8.31217 5.93297 8.06936C5.93297 7.82654 5.73866 7.62963 5.49866 7.62963Z" fill="#4A5EA8"/>
<path d="M5.32835 9.69887H2.94296C2.70314 9.69887 2.50865 9.89597 2.50865 10.1386C2.50865 10.3812 2.70296 10.5782 2.94296 10.5782H5.32835C5.56817 10.5782 5.76265 10.3812 5.76265 10.1386C5.76265 9.89597 5.56834 9.69887 5.32835 9.69887Z" fill="#4A5EA8"/>
<path d="M11.0076 8.76695C11.2257 8.78405 11.4371 8.71151 11.6035 8.56284L15.5281 5.04644C15.4502 5.01836 15.3673 5 15.2777 5H7.92601C7.83535 5 7.74788 5.01872 7.66379 5.04716L10.4506 8.47068C10.5918 8.64437 10.7894 8.74949 11.0076 8.76695Z" fill="#4A5EA8"/>
<path d="M15.9829 5.57851L12.0635 9.08969C11.7854 9.33916 11.4374 9.4729 11.0724 9.4729C11.0329 9.4729 10.9931 9.47146 10.9531 9.46822C10.5455 9.43564 10.1766 9.24053 9.91417 8.91833L7.13998 5.50975C7.09607 5.60047 7.06585 5.69821 7.05607 5.80081L6.5455 11.2388C6.50408 11.6796 6.82799 12.04 7.26514 12.04H14.6165C15.0535 12.04 15.4449 11.6796 15.4865 11.2388L15.9973 5.80081C16.0044 5.72305 15.9968 5.64961 15.9829 5.57851Z" fill="#4A5EA8"/>
</svg>
