<svg width="32" height="51" viewBox="0 0 32 51" fill="none" xmlns="http://www.w3.org/2000/svg">
<g filter="url(#filter0_d)">
<path d="M2 0.999999C2 0.447714 2.44772 0 3 0H29C29.5523 0 30 0.447715 30 1V45.7951C30 46.6544 28.9877 47.1135 28.3412 46.5474L16.6588 36.3172C16.2817 35.987 15.7183 35.987 15.3412 36.3172L3.6588 46.5474C3.0123 47.1135 2 46.6544 2 45.7951V0.999999Z" fill="#4A5EA8"/>
<path d="M2.5 0.999999C2.5 0.723857 2.72386 0.5 3 0.5H29C29.2761 0.5 29.5 0.723857 29.5 1V45.7951C29.5 46.2248 28.9938 46.4543 28.6706 46.1712L16.9882 35.941C16.4225 35.4457 15.5775 35.4457 15.0118 35.941L3.3294 46.1712C3.00615 46.4543 2.5 46.2248 2.5 45.7951V0.999999Z" stroke="#D5DAEB"/>
</g>
<path d="M8.48396 13H8L11.3377 17.759C11.4337 17.6672 11.5319 17.5773 11.6335 17.4906L8.48396 13Z" fill="white"/>
<path d="M8.96661 13L11.9422 17.2429C12.7162 16.6606 13.6193 16.2469 14.5999 16.0531L15.3939 14.9205L14.0471 13H8.96661Z" fill="white"/>
<path d="M14.5319 13H15.0161L15.8789 14.2303L15.637 14.5758L14.5319 13Z" fill="white"/>
<path d="M16.9842 13H17.4683L15.4016 15.9468C15.2252 15.9591 15.0501 15.9771 14.8778 16.0034L16.9842 13Z" fill="white"/>
<path d="M17.9515 13H23.0321L19.9634 17.3751C19.159 16.7285 18.2038 16.2671 17.1596 16.0566C16.9811 16.0209 16.7996 15.9926 16.616 15.9714C16.4478 15.9522 16.2778 15.9396 16.1057 15.934C16.0366 15.9313 15.9674 15.9288 15.8977 15.9283L17.9515 13Z" fill="white"/>
<path d="M23.5161 13H24L20.556 17.9109C20.5356 17.8902 20.5149 17.8698 20.4941 17.8495C20.4755 17.8313 20.4568 17.8133 20.4381 17.7952L20.4125 17.7706C20.3641 17.7243 20.316 17.6782 20.2667 17.6334L23.5161 13Z" fill="white"/>
<path d="M14.7052 24.8577C14.7059 24.6405 14.7072 24.155 14.7052 23.5237L14.7049 23.4274C14.7021 22.5567 14.7015 22.3573 14.8605 22.1128C15.1092 21.7307 15.5906 21.4813 16.0479 21.4787C16.3348 21.4772 16.5491 21.5731 16.5959 21.5948C16.9071 21.7395 17.0676 21.973 17.1257 22.0681C17.2952 22.3461 17.3071 22.6188 17.2992 22.7648C17.2932 22.8743 17.2743 23.2219 17.0069 23.4969C16.7846 23.7253 16.5301 23.7547 16.3992 23.7698L16.3676 23.7736C16.1996 23.7957 16.03 23.788 15.9383 23.7706C15.9388 23.4723 15.9392 23.1952 15.9399 22.897L15.947 22.8959L15.9584 22.8945C15.9726 22.8928 15.9906 22.8907 16.0028 22.8879C16.1233 22.8617 16.1638 22.8284 16.2033 22.7824C16.263 22.7129 16.2596 22.5508 16.1486 22.4697C16.0384 22.3893 15.8919 22.4398 15.8198 22.5144C15.7767 22.559 15.7618 22.6106 15.7558 22.6394L15.7991 25.7915L14.7052 24.8577Z" fill="white"/>
<path fill-rule="evenodd" clip-rule="evenodd" d="M15.869 27.768C13.1011 27.768 10.8489 25.4759 10.8489 22.6588C10.8489 19.8417 13.1011 17.5496 15.869 17.5496C18.637 17.5496 20.8891 19.8417 20.8891 22.6588C20.8891 25.4759 18.637 27.768 15.869 27.768ZM13.4616 22.9407C13.6179 23.928 14.378 24.6126 14.6595 24.8193L15.9977 25.9621C16.71 25.5222 17.2002 25.0521 17.5092 24.712C18.0148 24.1553 18.6029 23.4898 18.5595 22.6403C18.5568 22.5885 18.5522 22.5431 18.5476 22.5065C18.5454 22.4896 18.5432 22.4745 18.5413 22.4616C18.5692 22.4558 18.7544 22.4139 18.8518 22.2384C18.9752 22.0161 18.8393 21.7921 18.8336 21.783L17.8927 20.8722C17.8876 20.773 17.8964 20.6306 17.9059 20.476C17.9221 20.2156 17.9403 19.9207 17.8974 19.7404C17.8506 19.5441 17.6521 19.5495 17.6185 19.5505L17.6165 19.5505L17.6028 19.5507L17.5958 19.5506L17.5889 19.5506C17.5049 19.5499 17.3771 19.5488 17.2899 19.747C17.2699 19.7927 17.2672 19.8773 17.2644 19.9676C17.2614 20.0614 17.2583 20.1612 17.2352 20.2293L16.3219 19.3811C16.2517 19.3529 16.1321 19.3146 15.9794 19.314C15.822 19.3131 15.6979 19.3533 15.6269 19.3819C14.8051 20.1725 13.9834 20.963 13.1616 21.7531C13.0697 21.9206 13.076 22.1165 13.1798 22.2563C13.2729 22.3814 13.4108 22.4167 13.4539 22.4259C13.4374 22.6031 13.4277 22.7269 13.4616 22.9407Z" fill="white"/>
<path fill-rule="evenodd" clip-rule="evenodd" d="M9.63965 22.6597C9.63965 19.1581 12.4287 16.3194 15.8694 16.3194C19.3102 16.3194 22.0992 19.1581 22.0992 22.6597C22.0992 26.1613 19.3102 29 15.8694 29C12.4287 29 9.63965 26.1613 9.63965 22.6597ZM10.3654 22.6597C10.3654 25.7533 12.8298 28.2613 15.8694 28.2613C18.9091 28.2613 21.3734 25.7533 21.3734 22.6597C21.3734 19.5661 18.9091 17.0581 15.8694 17.0581C12.8298 17.0581 10.3654 19.5661 10.3654 22.6597Z" fill="white"/>
<defs>
<filter id="filter0_d" x="0" y="0" width="32" height="50.797" filterUnits="userSpaceOnUse" color-interpolation-filters="sRGB">
<feFlood flood-opacity="0" result="BackgroundImageFix"/>
<feColorMatrix in="SourceAlpha" type="matrix" values="0 0 0 0 0 0 0 0 0 0 0 0 0 0 0 0 0 0 127 0"/>
<feOffset dy="2"/>
<feGaussianBlur stdDeviation="1"/>
<feColorMatrix type="matrix" values="0 0 0 0 0 0 0 0 0 0 0 0 0 0 0 0 0 0 0.38 0"/>
<feBlend mode="normal" in2="BackgroundImageFix" result="effect1_dropShadow"/>
<feBlend mode="normal" in="SourceGraphic" in2="effect1_dropShadow" result="shape"/>
</filter>
</defs>
</svg>
