<svg width="32" height="51" viewBox="0 0 32 51" fill="none" xmlns="http://www.w3.org/2000/svg">
<g filter="url(#filter0_d)">
<path d="M2 0.999999C2 0.447714 2.44772 0 3 0H29C29.5523 0 30 0.447715 30 1V45.7951C30 46.6544 28.9877 47.1135 28.3412 46.5474L16.6588 36.3172C16.2817 35.987 15.7183 35.987 15.3412 36.3172L3.6588 46.5474C3.0123 47.1135 2 46.6544 2 45.7951V0.999999Z" fill="#00B25D"/>
<path d="M2.5 0.999999C2.5 0.723857 2.72386 0.5 3 0.5H29C29.2761 0.5 29.5 0.723857 29.5 1V45.7951C29.5 46.2248 28.9938 46.4543 28.6706 46.1712L16.9882 35.941C16.4225 35.4457 15.5775 35.4457 15.0118 35.941L3.3294 46.1712C3.00615 46.4543 2.5 46.2248 2.5 45.7951V0.999999Z" stroke="#D5DAEB"/>
</g>
<path d="M23.3711 20C23.3711 19.5478 24.0707 19.0416 23.9941 18.611C23.9157 18.168 23.0814 17.9272 22.9286 17.5142C22.7736 17.0938 23.2543 16.381 23.0299 15.999C22.8037 15.6133 21.9363 15.669 21.6471 15.3297C21.3573 14.9896 21.5625 14.1572 21.2171 13.8714C20.873 13.5866 20.0771 13.9297 19.686 13.7063C19.2981 13.4854 19.2034 12.6336 18.7769 12.4807C18.3581 12.3303 17.7302 12.9211 17.2809 12.8435C16.8439 12.768 16.4589 12 16.0001 12C15.5413 12 15.1563 12.768 14.7194 12.8435C14.2702 12.9211 13.6426 12.3303 13.2236 12.4805C12.7971 12.6336 12.7019 13.4852 12.3144 13.7063C11.9229 13.9298 11.1268 13.5866 10.7827 13.8716C10.4375 14.1574 10.6431 14.9896 10.3531 15.3297C10.0642 15.669 9.19649 15.6135 8.97008 15.999C8.7459 16.3813 9.22656 17.0939 9.07141 17.5143C8.91882 17.9272 8.0848 18.1678 8.00602 18.6106C7.92947 19.0415 8.62885 19.5478 8.62885 20C8.62885 20.4522 7.9293 20.9585 8.00585 21.3892C8.08463 21.8322 8.91882 22.0727 9.07158 22.4858C9.22639 22.9062 8.74573 23.6188 8.97008 24.0008C9.19632 24.3867 10.0638 24.331 10.3531 24.6703C10.6429 25.0106 10.4377 25.8428 10.7829 26.1284C11.1272 26.4132 11.9229 26.0703 12.3142 26.2935C12.7021 26.5145 12.7968 27.3664 13.2232 27.5193C13.6421 27.6697 14.2698 27.0789 14.7191 27.1563C15.156 27.2318 15.5413 28 15.9999 28C16.4585 28 16.8437 27.2318 17.2808 27.1563C17.73 27.0789 18.3573 27.6697 18.7764 27.5195C19.2029 27.3664 19.2981 26.5145 19.6856 26.2933C20.0769 26.0703 20.873 26.4132 21.2171 26.1283C21.5623 25.8426 21.3569 25.0104 21.6469 24.6702C21.9358 24.331 22.8033 24.3865 23.0297 24.0008C23.2539 23.6185 22.7733 22.9061 22.9284 22.4857C23.0812 22.0727 23.915 21.8322 23.9938 21.3892C24.0705 20.9585 23.3711 20.4522 23.3711 20Z" fill="white"/>
<path d="M14.9991 23.334C14.7237 23.334 14.4582 23.2427 14.2615 23.0768L11.6354 20.8617C11.2322 20.5215 11.2322 19.9657 11.6354 19.6256C12.0387 19.2854 12.6977 19.2854 13.1009 19.6256L14.9696 21.2018L18.8644 17.6179C19.2479 17.2611 19.9069 17.2362 20.3298 17.5681C20.7527 17.8916 20.7822 18.4475 20.3888 18.8042L15.7663 23.0519C15.5794 23.2261 15.304 23.334 15.0188 23.334C15.0188 23.334 15.0089 23.334 14.9991 23.334Z" fill="#04AD5B"/>
<defs>
<filter id="filter0_d" x="0" y="0" width="32" height="50.797" filterUnits="userSpaceOnUse" color-interpolation-filters="sRGB">
<feFlood flood-opacity="0" result="BackgroundImageFix"/>
<feColorMatrix in="SourceAlpha" type="matrix" values="0 0 0 0 0 0 0 0 0 0 0 0 0 0 0 0 0 0 127 0"/>
<feOffset dy="2"/>
<feGaussianBlur stdDeviation="1"/>
<feColorMatrix type="matrix" values="0 0 0 0 0 0 0 0 0 0 0 0 0 0 0 0 0 0 0.38 0"/>
<feBlend mode="normal" in2="BackgroundImageFix" result="effect1_dropShadow"/>
<feBlend mode="normal" in="SourceGraphic" in2="effect1_dropShadow" result="shape"/>
</filter>
</defs>
</svg>
